<mxfile host="app.diagrams.net" modified="2021-05-09T19:13:01.691Z" agent="5.0 (Windows NT 10.0; Win64; x64) AppleWebKit/537.36 (KHTML, like Gecko) Chrome/90.0.4430.93 Safari/537.36" etag="zvE_IG37RfCrBnibQ4L0" version="14.6.9" type="github">
  <diagram name="Page-1" id="b5b7bab2-c9e2-2cf4-8b2a-24fd1a2a6d21">
    <mxGraphModel dx="982" dy="552" grid="1" gridSize="10" guides="1" tooltips="1" connect="1" arrows="1" fold="1" page="1" pageScale="1" pageWidth="827" pageHeight="1169" background="#ffffff" math="0" shadow="0">
      <root>
        <mxCell id="0" />
        <mxCell id="1" parent="0" />
        <mxCell id="x6ybNt557TZEMaajeLob-4" value="User Administration" style="html=1;dropTarget=0;" parent="1" vertex="1">
          <mxGeometry x="204" y="390" width="180" height="90" as="geometry" />
        </mxCell>
        <mxCell id="x6ybNt557TZEMaajeLob-5" value="" style="shape=module;jettyWidth=8;jettyHeight=4;" parent="x6ybNt557TZEMaajeLob-4" vertex="1">
          <mxGeometry x="1" width="20" height="20" relative="1" as="geometry">
            <mxPoint x="-27" y="7" as="offset" />
          </mxGeometry>
        </mxCell>
        <mxCell id="x6ybNt557TZEMaajeLob-6" value="Vocabulary Administration" style="html=1;dropTarget=0;" parent="1" vertex="1">
          <mxGeometry x="514" y="390" width="180" height="90" as="geometry" />
        </mxCell>
        <mxCell id="x6ybNt557TZEMaajeLob-7" value="" style="shape=module;jettyWidth=8;jettyHeight=4;" parent="x6ybNt557TZEMaajeLob-6" vertex="1">
          <mxGeometry x="1" width="20" height="20" relative="1" as="geometry">
            <mxPoint x="-27" y="7" as="offset" />
          </mxGeometry>
        </mxCell>
        <mxCell id="x6ybNt557TZEMaajeLob-10" value="Game Administration" style="html=1;dropTarget=0;" parent="1" vertex="1">
          <mxGeometry x="514" y="540" width="180" height="90" as="geometry" />
        </mxCell>
        <mxCell id="x6ybNt557TZEMaajeLob-11" value="" style="shape=module;jettyWidth=8;jettyHeight=4;" parent="x6ybNt557TZEMaajeLob-10" vertex="1">
          <mxGeometry x="1" width="20" height="20" relative="1" as="geometry">
            <mxPoint x="-27" y="7" as="offset" />
          </mxGeometry>
        </mxCell>
        <mxCell id="x6ybNt557TZEMaajeLob-14" value="Vocabduel Webfrontend" style="html=1;dropTarget=0;" parent="1" vertex="1">
          <mxGeometry x="514" y="230" width="180" height="90" as="geometry" />
        </mxCell>
        <mxCell id="x6ybNt557TZEMaajeLob-15" value="" style="shape=module;jettyWidth=8;jettyHeight=4;" parent="x6ybNt557TZEMaajeLob-14" vertex="1">
          <mxGeometry x="1" width="20" height="20" relative="1" as="geometry">
            <mxPoint x="-27" y="7" as="offset" />
          </mxGeometry>
        </mxCell>
        <mxCell id="x6ybNt557TZEMaajeLob-41" value="" style="rounded=0;orthogonalLoop=1;jettySize=auto;html=1;endArrow=none;endFill=0;exitX=0.5;exitY=0;exitDx=0;exitDy=0;" parent="1" source="x6ybNt557TZEMaajeLob-4" target="x6ybNt557TZEMaajeLob-43" edge="1">
          <mxGeometry relative="1" as="geometry">
            <mxPoint x="4" y="240" as="sourcePoint" />
          </mxGeometry>
        </mxCell>
        <mxCell id="x6ybNt557TZEMaajeLob-42" value="" style="rounded=0;orthogonalLoop=1;jettySize=auto;html=1;endArrow=halfCircle;endFill=0;entryX=0.5;entryY=0.5;entryDx=0;entryDy=0;endSize=6;strokeWidth=1;exitX=0;exitY=0.5;exitDx=0;exitDy=0;" parent="1" source="x6ybNt557TZEMaajeLob-14" target="x6ybNt557TZEMaajeLob-43" edge="1">
          <mxGeometry relative="1" as="geometry">
            <mxPoint x="120" y="240" as="sourcePoint" />
            <Array as="points">
              <mxPoint x="294" y="275" />
            </Array>
          </mxGeometry>
        </mxCell>
        <mxCell id="x6ybNt557TZEMaajeLob-43" value="" style="ellipse;whiteSpace=wrap;html=1;fontFamily=Helvetica;fontSize=12;fontColor=#000000;align=center;strokeColor=#000000;fillColor=#ffffff;points=[];aspect=fixed;resizable=0;" parent="1" vertex="1">
          <mxGeometry x="289" y="350" width="10" height="10" as="geometry" />
        </mxCell>
        <mxCell id="x6ybNt557TZEMaajeLob-44" value="" style="rounded=0;orthogonalLoop=1;jettySize=auto;html=1;endArrow=none;endFill=0;exitX=1;exitY=0.5;exitDx=0;exitDy=0;" parent="1" source="x6ybNt557TZEMaajeLob-10" target="x6ybNt557TZEMaajeLob-46" edge="1">
          <mxGeometry relative="1" as="geometry">
            <mxPoint x="400" y="295" as="sourcePoint" />
            <Array as="points">
              <mxPoint x="726" y="585" />
            </Array>
          </mxGeometry>
        </mxCell>
        <mxCell id="x6ybNt557TZEMaajeLob-45" value="" style="rounded=0;orthogonalLoop=1;jettySize=auto;html=1;endArrow=halfCircle;endFill=0;entryX=0.5;entryY=0.5;entryDx=0;entryDy=0;endSize=6;strokeWidth=1;exitX=1;exitY=0.5;exitDx=0;exitDy=0;" parent="1" source="x6ybNt557TZEMaajeLob-14" target="x6ybNt557TZEMaajeLob-46" edge="1">
          <mxGeometry relative="1" as="geometry">
            <mxPoint x="440" y="295" as="sourcePoint" />
            <Array as="points">
              <mxPoint x="725" y="275" />
            </Array>
          </mxGeometry>
        </mxCell>
        <mxCell id="x6ybNt557TZEMaajeLob-46" value="" style="ellipse;whiteSpace=wrap;html=1;fontFamily=Helvetica;fontSize=12;fontColor=#000000;align=center;strokeColor=#000000;fillColor=#ffffff;points=[];aspect=fixed;resizable=0;" parent="1" vertex="1">
          <mxGeometry x="720" y="430" width="10" height="10" as="geometry" />
        </mxCell>
        <mxCell id="x6ybNt557TZEMaajeLob-59" value="" style="rounded=0;orthogonalLoop=1;jettySize=auto;html=1;endArrow=none;endFill=0;exitX=0.5;exitY=1;exitDx=0;exitDy=0;" parent="1" source="x6ybNt557TZEMaajeLob-6" target="x6ybNt557TZEMaajeLob-61" edge="1">
          <mxGeometry relative="1" as="geometry">
            <mxPoint x="414" y="470" as="sourcePoint" />
            <Array as="points" />
          </mxGeometry>
        </mxCell>
        <mxCell id="x6ybNt557TZEMaajeLob-60" value="" style="rounded=0;orthogonalLoop=1;jettySize=auto;html=1;endArrow=halfCircle;endFill=0;entryX=0.5;entryY=0.5;entryDx=0;entryDy=0;endSize=6;strokeWidth=1;exitX=0.5;exitY=0;exitDx=0;exitDy=0;" parent="1" source="x6ybNt557TZEMaajeLob-10" target="x6ybNt557TZEMaajeLob-61" edge="1">
          <mxGeometry relative="1" as="geometry">
            <mxPoint x="370" y="475" as="sourcePoint" />
            <Array as="points" />
          </mxGeometry>
        </mxCell>
        <mxCell id="x6ybNt557TZEMaajeLob-61" value="" style="ellipse;whiteSpace=wrap;html=1;fontFamily=Helvetica;fontSize=12;fontColor=#000000;align=center;strokeColor=#000000;fillColor=#ffffff;points=[];aspect=fixed;resizable=0;" parent="1" vertex="1">
          <mxGeometry x="599" y="500" width="10" height="10" as="geometry" />
        </mxCell>
        <mxCell id="x6ybNt557TZEMaajeLob-71" value="" style="rounded=0;orthogonalLoop=1;jettySize=auto;html=1;endArrow=none;endFill=0;exitX=0.5;exitY=1;exitDx=0;exitDy=0;entryX=-0.001;entryY=0.502;entryDx=0;entryDy=0;entryPerimeter=0;" parent="1" source="x6ybNt557TZEMaajeLob-4" target="x6ybNt557TZEMaajeLob-73" edge="1">
          <mxGeometry relative="1" as="geometry">
            <mxPoint x="329" y="325" as="sourcePoint" />
            <mxPoint x="334" y="690" as="targetPoint" />
            <Array as="points">
              <mxPoint x="294" y="585" />
            </Array>
          </mxGeometry>
        </mxCell>
        <mxCell id="x6ybNt557TZEMaajeLob-72" value="" style="rounded=0;orthogonalLoop=1;jettySize=auto;html=1;endArrow=halfCircle;endFill=0;entryX=0.5;entryY=0.5;entryDx=0;entryDy=0;endSize=6;strokeWidth=1;exitX=0;exitY=0.5;exitDx=0;exitDy=0;" parent="1" source="x6ybNt557TZEMaajeLob-10" target="x6ybNt557TZEMaajeLob-73" edge="1">
          <mxGeometry relative="1" as="geometry">
            <mxPoint x="445" y="325" as="sourcePoint" />
            <Array as="points" />
          </mxGeometry>
        </mxCell>
        <mxCell id="x6ybNt557TZEMaajeLob-73" value="" style="ellipse;whiteSpace=wrap;html=1;fontFamily=Helvetica;fontSize=12;fontColor=#000000;align=center;strokeColor=#000000;fillColor=#ffffff;points=[];aspect=fixed;resizable=0;" parent="1" vertex="1">
          <mxGeometry x="440" y="580" width="10" height="10" as="geometry" />
        </mxCell>
        <mxCell id="x6ybNt557TZEMaajeLob-74" value="" style="rounded=0;orthogonalLoop=1;jettySize=auto;html=1;endArrow=none;endFill=0;exitX=1;exitY=0.5;exitDx=0;exitDy=0;" parent="1" source="x6ybNt557TZEMaajeLob-4" target="x6ybNt557TZEMaajeLob-76" edge="1">
          <mxGeometry relative="1" as="geometry">
            <mxPoint x="234" y="435" as="sourcePoint" />
          </mxGeometry>
        </mxCell>
        <mxCell id="x6ybNt557TZEMaajeLob-75" value="" style="rounded=0;orthogonalLoop=1;jettySize=auto;html=1;endArrow=halfCircle;endFill=0;entryX=0.5;entryY=0.5;entryDx=0;entryDy=0;endSize=6;strokeWidth=1;exitX=0;exitY=0.5;exitDx=0;exitDy=0;" parent="1" source="x6ybNt557TZEMaajeLob-6" target="x6ybNt557TZEMaajeLob-76" edge="1">
          <mxGeometry relative="1" as="geometry">
            <mxPoint x="240" y="475" as="sourcePoint" />
            <Array as="points" />
          </mxGeometry>
        </mxCell>
        <mxCell id="x6ybNt557TZEMaajeLob-76" value="" style="ellipse;whiteSpace=wrap;html=1;fontFamily=Helvetica;fontSize=12;fontColor=#000000;align=center;strokeColor=#000000;fillColor=#ffffff;points=[];aspect=fixed;resizable=0;" parent="1" vertex="1">
          <mxGeometry x="440" y="430" width="10" height="10" as="geometry" />
        </mxCell>
        <mxCell id="O3FUq9-RMJTwjJy8u0qb-5" value="" style="rounded=0;orthogonalLoop=1;jettySize=auto;html=1;endArrow=none;endFill=0;exitX=0.5;exitY=0;exitDx=0;exitDy=0;" parent="1" source="x6ybNt557TZEMaajeLob-6" target="O3FUq9-RMJTwjJy8u0qb-7" edge="1">
          <mxGeometry relative="1" as="geometry">
            <mxPoint x="500" y="315" as="sourcePoint" />
          </mxGeometry>
        </mxCell>
        <mxCell id="O3FUq9-RMJTwjJy8u0qb-6" value="" style="rounded=0;orthogonalLoop=1;jettySize=auto;html=1;endArrow=halfCircle;endFill=0;entryX=0.5;entryY=0.5;entryDx=0;entryDy=0;endSize=6;strokeWidth=1;exitX=0.5;exitY=1;exitDx=0;exitDy=0;" parent="1" source="x6ybNt557TZEMaajeLob-14" target="O3FUq9-RMJTwjJy8u0qb-7" edge="1">
          <mxGeometry relative="1" as="geometry">
            <mxPoint x="540" y="315" as="sourcePoint" />
            <Array as="points" />
          </mxGeometry>
        </mxCell>
        <mxCell id="O3FUq9-RMJTwjJy8u0qb-7" value="" style="ellipse;whiteSpace=wrap;html=1;fontFamily=Helvetica;fontSize=12;fontColor=#000000;align=center;strokeColor=#000000;fillColor=#ffffff;points=[];aspect=fixed;resizable=0;" parent="1" vertex="1">
          <mxGeometry x="599" y="350" width="10" height="10" as="geometry" />
        </mxCell>
        <mxCell id="SuXIL9pFcdMHdK0L-3to-1" value="&lt;font face=&quot;Lucida Console&quot;&gt;UserService&lt;/font&gt;" style="text;html=1;align=center;verticalAlign=middle;resizable=0;points=[];autosize=1;strokeColor=none;" vertex="1" parent="1">
          <mxGeometry x="400" y="600" width="90" height="20" as="geometry" />
        </mxCell>
        <mxCell id="SuXIL9pFcdMHdK0L-3to-2" value="&lt;font face=&quot;Lucida Console&quot;&gt;UserService&lt;br&gt;AuthService&lt;/font&gt;" style="text;html=1;align=center;verticalAlign=middle;resizable=0;points=[];autosize=1;strokeColor=none;" vertex="1" parent="1">
          <mxGeometry x="194" y="340" width="90" height="30" as="geometry" />
        </mxCell>
        <mxCell id="SuXIL9pFcdMHdK0L-3to-3" value="&lt;font face=&quot;Lucida Console&quot;&gt;VocabularyService&lt;/font&gt;" style="text;html=1;align=center;verticalAlign=middle;resizable=0;points=[];autosize=1;strokeColor=none;" vertex="1" parent="1">
          <mxGeometry x="460" y="495" width="140" height="20" as="geometry" />
        </mxCell>
        <mxCell id="SuXIL9pFcdMHdK0L-3to-4" value="&lt;font face=&quot;Lucida Console&quot;&gt;UserService&lt;/font&gt;" style="text;html=1;align=center;verticalAlign=middle;resizable=0;points=[];autosize=1;strokeColor=none;" vertex="1" parent="1">
          <mxGeometry x="400" y="450" width="90" height="20" as="geometry" />
        </mxCell>
        <mxCell id="SuXIL9pFcdMHdK0L-3to-5" value="&lt;font face=&quot;Lucida Console&quot;&gt;GameService&lt;br&gt;ScoreService&lt;br&gt;&lt;/font&gt;" style="text;html=1;align=center;verticalAlign=middle;resizable=0;points=[];autosize=1;strokeColor=none;" vertex="1" parent="1">
          <mxGeometry x="730" y="420" width="100" height="30" as="geometry" />
        </mxCell>
        <mxCell id="SuXIL9pFcdMHdK0L-3to-6" value="&lt;font face=&quot;Lucida Console&quot;&gt;VocabularyService&lt;/font&gt;" style="text;html=1;align=center;verticalAlign=middle;resizable=0;points=[];autosize=1;strokeColor=none;" vertex="1" parent="1">
          <mxGeometry x="459" y="345" width="140" height="20" as="geometry" />
        </mxCell>
      </root>
    </mxGraphModel>
  </diagram>
</mxfile>
